<svg xmlns="http://www.w3.org/2000/svg" viewBox="0 0 64 64.03"><defs></defs><g id="Camada_2" data-name="Camada 2"><g id="Layer_1" data-name="Layer 1"><path class="cls-1" d="M63.41,27.46a2,2,0,1,1,0-2.83,2,2,0,0,1,0,2.83ZM43.56,44.94c.07.08.06.21-.09.44a3.93,3.93,0,0,0-.69,2.24,2.23,2.23,0,0,0,0,.37,3.82,3.82,0,0,1,0,1.81,14,14,0,0,1-4.09,9.48,6,6,0,0,1-8.48,0L18.87,48l-5.66,5.66,5.66,5.66h0l-5.66-5.66L9.4,57.43A2,2,0,0,1,6.57,54.6l3.81-3.81L4.72,45.13h0l5.66,5.66L16,45.13,4.72,33.82a6,6,0,0,1,0-8.49,13.94,13.94,0,0,1,10.21-4.06,3.67,3.67,0,0,1,.73,0l.25,0a1.64,1.64,0,0,1,.22,0h.37a4,4,0,0,0,2.24-.68l16.07-11,0,0a2.07,2.07,0,0,1,2.69,3.13,2.33,2.33,0,0,1-.26.17l0,0L21.18,24a8,8,0,0,1-4.46,1.35,7.94,7.94,0,0,1-.85,0,5,5,0,0,0-.84,0,10,10,0,0,0-7.48,2.89h0a2,2,0,0,0,0,2.83L33,56.45a2,2,0,0,0,2.83,0,10,10,0,0,0,2.91-6.69,3.61,3.61,0,0,0,.08-1.51,5.92,5.92,0,0,1,0-.84,7.94,7.94,0,0,1,1.36-4.47,4.43,4.43,0,0,0,.51-1l13-19.08a2,2,0,0,0-.21-2.5L42.55,9.42h0l-3-3h0l-3-3A2,2,0,0,1,39.37.59l3.54,3.53h0L56.36,17.58a6,6,0,0,1,.77,7.52L43.56,44.94ZM4,62a2,2,0,1,1-2-2,2,2,0,0,1,2,2Z"/></g></g></svg>